<?xml version="1.0" encoding="utf-8" standalone="no"?>
<!DOCTYPE svg PUBLIC "-//W3C//DTD SVG 1.1//EN"
  "http://www.w3.org/Graphics/SVG/1.1/DTD/svg11.dtd">
<svg height="396pt" version="1.1" viewBox="0 0 576 396" width="576pt" xmlns="http://www.w3.org/2000/svg" xmlns:xlink="http://www.w3.org/1999/xlink">
 <metadata>
  <rdf:RDF xmlns:cc="http://creativecommons.org/ns#" xmlns:dc="http://purl.org/dc/elements/1.1/" xmlns:rdf="http://www.w3.org/1999/02/22-rdf-syntax-ns#">
   <cc:Work>
    <dc:type rdf:resource="http://purl.org/dc/dcmitype/StillImage"/>
    <dc:date>2021-09-25T10:16:28.947914</dc:date>
    <dc:format>image/svg+xml</dc:format>
    <dc:creator>
     <cc:Agent>
      <dc:title>Matplotlib v3.4.3, https://matplotlib.org/</dc:title>
     </cc:Agent>
    </dc:creator>
   </cc:Work>
  </rdf:RDF>
 </metadata>
 <defs>
  <style type="text/css">*{stroke-linecap:butt;stroke-linejoin:round;}</style>
 </defs>
 <g id="figure_1">
  <g id="patch_1">
   <path d="M 0 396 
L 576 396 
L 576 0 
L 0 0 
z
" style="fill:#ffffff;"/>
  </g>
  <g id="axes_1">
   <g id="patch_2">
    <path d="M 72 346.5 
L 518.4 346.5 
L 518.4 47.52 
L 72 47.52 
z
" style="fill:#ffffff;"/>
   </g>
   <g id="matplotlib.axis_1">
    <g id="xtick_1">
     <g id="text_1">
      <!-- 4.5 -->
      <g style="fill:#262626;" transform="translate(107.886364 364.157812)scale(0.1 -0.1)">
       <defs>
        <path d="M 2069 0 
L 2069 1097 
L 81 1097 
L 81 1613 
L 2172 4581 
L 2631 4581 
L 2631 1613 
L 3250 1613 
L 3250 1097 
L 2631 1097 
L 2631 0 
L 2069 0 
z
M 2069 1613 
L 2069 3678 
L 634 1613 
L 2069 1613 
z
" id="ArialMT-34" transform="scale(0.015625)"/>
        <path d="M 581 0 
L 581 641 
L 1222 641 
L 1222 0 
L 581 0 
z
" id="ArialMT-2e" transform="scale(0.015625)"/>
        <path d="M 266 1200 
L 856 1250 
Q 922 819 1161 601 
Q 1400 384 1738 384 
Q 2144 384 2425 690 
Q 2706 997 2706 1503 
Q 2706 1984 2436 2262 
Q 2166 2541 1728 2541 
Q 1456 2541 1237 2417 
Q 1019 2294 894 2097 
L 366 2166 
L 809 4519 
L 3088 4519 
L 3088 3981 
L 1259 3981 
L 1013 2750 
Q 1425 3038 1878 3038 
Q 2478 3038 2890 2622 
Q 3303 2206 3303 1553 
Q 3303 931 2941 478 
Q 2500 -78 1738 -78 
Q 1113 -78 717 272 
Q 322 622 266 1200 
z
" id="ArialMT-35" transform="scale(0.015625)"/>
       </defs>
       <use xlink:href="#ArialMT-34"/>
       <use x="55.615234" xlink:href="#ArialMT-2e"/>
       <use x="83.398438" xlink:href="#ArialMT-35"/>
      </g>
     </g>
    </g>
    <g id="xtick_2">
     <g id="text_2">
      <!-- 5.0 -->
      <g style="fill:#262626;" transform="translate(164.25 364.157812)scale(0.1 -0.1)">
       <defs>
        <path d="M 266 2259 
Q 266 3072 433 3567 
Q 600 4063 929 4331 
Q 1259 4600 1759 4600 
Q 2128 4600 2406 4451 
Q 2684 4303 2865 4023 
Q 3047 3744 3150 3342 
Q 3253 2941 3253 2259 
Q 3253 1453 3087 958 
Q 2922 463 2592 192 
Q 2263 -78 1759 -78 
Q 1097 -78 719 397 
Q 266 969 266 2259 
z
M 844 2259 
Q 844 1131 1108 757 
Q 1372 384 1759 384 
Q 2147 384 2411 759 
Q 2675 1134 2675 2259 
Q 2675 3391 2411 3762 
Q 2147 4134 1753 4134 
Q 1366 4134 1134 3806 
Q 844 3388 844 2259 
z
" id="ArialMT-30" transform="scale(0.015625)"/>
       </defs>
       <use xlink:href="#ArialMT-35"/>
       <use x="55.615234" xlink:href="#ArialMT-2e"/>
       <use x="83.398438" xlink:href="#ArialMT-30"/>
      </g>
     </g>
    </g>
    <g id="xtick_3">
     <g id="text_3">
      <!-- 5.5 -->
      <g style="fill:#262626;" transform="translate(220.613636 364.157812)scale(0.1 -0.1)">
       <use xlink:href="#ArialMT-35"/>
       <use x="55.615234" xlink:href="#ArialMT-2e"/>
       <use x="83.398438" xlink:href="#ArialMT-35"/>
      </g>
     </g>
    </g>
    <g id="xtick_4">
     <g id="text_4">
      <!-- 6.0 -->
      <g style="fill:#262626;" transform="translate(276.977273 364.157812)scale(0.1 -0.1)">
       <defs>
        <path d="M 3184 3459 
L 2625 3416 
Q 2550 3747 2413 3897 
Q 2184 4138 1850 4138 
Q 1581 4138 1378 3988 
Q 1113 3794 959 3422 
Q 806 3050 800 2363 
Q 1003 2672 1297 2822 
Q 1591 2972 1913 2972 
Q 2475 2972 2870 2558 
Q 3266 2144 3266 1488 
Q 3266 1056 3080 686 
Q 2894 316 2569 119 
Q 2244 -78 1831 -78 
Q 1128 -78 684 439 
Q 241 956 241 2144 
Q 241 3472 731 4075 
Q 1159 4600 1884 4600 
Q 2425 4600 2770 4297 
Q 3116 3994 3184 3459 
z
M 888 1484 
Q 888 1194 1011 928 
Q 1134 663 1356 523 
Q 1578 384 1822 384 
Q 2178 384 2434 671 
Q 2691 959 2691 1453 
Q 2691 1928 2437 2201 
Q 2184 2475 1800 2475 
Q 1419 2475 1153 2201 
Q 888 1928 888 1484 
z
" id="ArialMT-36" transform="scale(0.015625)"/>
       </defs>
       <use xlink:href="#ArialMT-36"/>
       <use x="55.615234" xlink:href="#ArialMT-2e"/>
       <use x="83.398438" xlink:href="#ArialMT-30"/>
      </g>
     </g>
    </g>
    <g id="xtick_5">
     <g id="text_5">
      <!-- 6.5 -->
      <g style="fill:#262626;" transform="translate(333.340909 364.157812)scale(0.1 -0.1)">
       <use xlink:href="#ArialMT-36"/>
       <use x="55.615234" xlink:href="#ArialMT-2e"/>
       <use x="83.398438" xlink:href="#ArialMT-35"/>
      </g>
     </g>
    </g>
    <g id="xtick_6">
     <g id="text_6">
      <!-- 7.0 -->
      <g style="fill:#262626;" transform="translate(389.704545 364.157812)scale(0.1 -0.1)">
       <defs>
        <path d="M 303 3981 
L 303 4522 
L 3269 4522 
L 3269 4084 
Q 2831 3619 2401 2847 
Q 1972 2075 1738 1259 
Q 1569 684 1522 0 
L 944 0 
Q 953 541 1156 1306 
Q 1359 2072 1739 2783 
Q 2119 3494 2547 3981 
L 303 3981 
z
" id="ArialMT-37" transform="scale(0.015625)"/>
       </defs>
       <use xlink:href="#ArialMT-37"/>
       <use x="55.615234" xlink:href="#ArialMT-2e"/>
       <use x="83.398438" xlink:href="#ArialMT-30"/>
      </g>
     </g>
    </g>
    <g id="xtick_7">
     <g id="text_7">
      <!-- 7.5 -->
      <g style="fill:#262626;" transform="translate(446.068182 364.157812)scale(0.1 -0.1)">
       <use xlink:href="#ArialMT-37"/>
       <use x="55.615234" xlink:href="#ArialMT-2e"/>
       <use x="83.398438" xlink:href="#ArialMT-35"/>
      </g>
     </g>
    </g>
    <g id="xtick_8">
     <g id="text_8">
      <!-- 8.0 -->
      <g style="fill:#262626;" transform="translate(502.431818 364.157812)scale(0.1 -0.1)">
       <defs>
        <path d="M 1131 2484 
Q 781 2613 612 2850 
Q 444 3088 444 3419 
Q 444 3919 803 4259 
Q 1163 4600 1759 4600 
Q 2359 4600 2725 4251 
Q 3091 3903 3091 3403 
Q 3091 3084 2923 2848 
Q 2756 2613 2416 2484 
Q 2838 2347 3058 2040 
Q 3278 1734 3278 1309 
Q 3278 722 2862 322 
Q 2447 -78 1769 -78 
Q 1091 -78 675 323 
Q 259 725 259 1325 
Q 259 1772 486 2073 
Q 713 2375 1131 2484 
z
M 1019 3438 
Q 1019 3113 1228 2906 
Q 1438 2700 1772 2700 
Q 2097 2700 2305 2904 
Q 2513 3109 2513 3406 
Q 2513 3716 2298 3927 
Q 2084 4138 1766 4138 
Q 1444 4138 1231 3931 
Q 1019 3725 1019 3438 
z
M 838 1322 
Q 838 1081 952 856 
Q 1066 631 1291 507 
Q 1516 384 1775 384 
Q 2178 384 2440 643 
Q 2703 903 2703 1303 
Q 2703 1709 2433 1975 
Q 2163 2241 1756 2241 
Q 1359 2241 1098 1978 
Q 838 1716 838 1322 
z
" id="ArialMT-38" transform="scale(0.015625)"/>
       </defs>
       <use xlink:href="#ArialMT-38"/>
       <use x="55.615234" xlink:href="#ArialMT-2e"/>
       <use x="83.398438" xlink:href="#ArialMT-30"/>
      </g>
     </g>
    </g>
    <g id="text_9">
     <!-- sepal_length -->
     <g style="fill:#262626;" transform="translate(264.009844 378.018906)scale(0.11 -0.11)">
      <defs>
       <path d="M 197 991 
L 753 1078 
Q 800 744 1014 566 
Q 1228 388 1613 388 
Q 2000 388 2187 545 
Q 2375 703 2375 916 
Q 2375 1106 2209 1216 
Q 2094 1291 1634 1406 
Q 1016 1563 777 1677 
Q 538 1791 414 1992 
Q 291 2194 291 2438 
Q 291 2659 392 2848 
Q 494 3038 669 3163 
Q 800 3259 1026 3326 
Q 1253 3394 1513 3394 
Q 1903 3394 2198 3281 
Q 2494 3169 2634 2976 
Q 2775 2784 2828 2463 
L 2278 2388 
Q 2241 2644 2061 2787 
Q 1881 2931 1553 2931 
Q 1166 2931 1000 2803 
Q 834 2675 834 2503 
Q 834 2394 903 2306 
Q 972 2216 1119 2156 
Q 1203 2125 1616 2013 
Q 2213 1853 2448 1751 
Q 2684 1650 2818 1456 
Q 2953 1263 2953 975 
Q 2953 694 2789 445 
Q 2625 197 2315 61 
Q 2006 -75 1616 -75 
Q 969 -75 630 194 
Q 291 463 197 991 
z
" id="ArialMT-73" transform="scale(0.015625)"/>
       <path d="M 2694 1069 
L 3275 997 
Q 3138 488 2766 206 
Q 2394 -75 1816 -75 
Q 1088 -75 661 373 
Q 234 822 234 1631 
Q 234 2469 665 2931 
Q 1097 3394 1784 3394 
Q 2450 3394 2872 2941 
Q 3294 2488 3294 1666 
Q 3294 1616 3291 1516 
L 816 1516 
Q 847 969 1125 678 
Q 1403 388 1819 388 
Q 2128 388 2347 550 
Q 2566 713 2694 1069 
z
M 847 1978 
L 2700 1978 
Q 2663 2397 2488 2606 
Q 2219 2931 1791 2931 
Q 1403 2931 1139 2672 
Q 875 2413 847 1978 
z
" id="ArialMT-65" transform="scale(0.015625)"/>
       <path d="M 422 -1272 
L 422 3319 
L 934 3319 
L 934 2888 
Q 1116 3141 1344 3267 
Q 1572 3394 1897 3394 
Q 2322 3394 2647 3175 
Q 2972 2956 3137 2557 
Q 3303 2159 3303 1684 
Q 3303 1175 3120 767 
Q 2938 359 2589 142 
Q 2241 -75 1856 -75 
Q 1575 -75 1351 44 
Q 1128 163 984 344 
L 984 -1272 
L 422 -1272 
z
M 931 1641 
Q 931 1000 1190 694 
Q 1450 388 1819 388 
Q 2194 388 2461 705 
Q 2728 1022 2728 1688 
Q 2728 2322 2467 2637 
Q 2206 2953 1844 2953 
Q 1484 2953 1207 2617 
Q 931 2281 931 1641 
z
" id="ArialMT-70" transform="scale(0.015625)"/>
       <path d="M 2588 409 
Q 2275 144 1986 34 
Q 1697 -75 1366 -75 
Q 819 -75 525 192 
Q 231 459 231 875 
Q 231 1119 342 1320 
Q 453 1522 633 1644 
Q 813 1766 1038 1828 
Q 1203 1872 1538 1913 
Q 2219 1994 2541 2106 
Q 2544 2222 2544 2253 
Q 2544 2597 2384 2738 
Q 2169 2928 1744 2928 
Q 1347 2928 1158 2789 
Q 969 2650 878 2297 
L 328 2372 
Q 403 2725 575 2942 
Q 747 3159 1072 3276 
Q 1397 3394 1825 3394 
Q 2250 3394 2515 3294 
Q 2781 3194 2906 3042 
Q 3031 2891 3081 2659 
Q 3109 2516 3109 2141 
L 3109 1391 
Q 3109 606 3145 398 
Q 3181 191 3288 0 
L 2700 0 
Q 2613 175 2588 409 
z
M 2541 1666 
Q 2234 1541 1622 1453 
Q 1275 1403 1131 1340 
Q 988 1278 909 1158 
Q 831 1038 831 891 
Q 831 666 1001 516 
Q 1172 366 1500 366 
Q 1825 366 2078 508 
Q 2331 650 2450 897 
Q 2541 1088 2541 1459 
L 2541 1666 
z
" id="ArialMT-61" transform="scale(0.015625)"/>
       <path d="M 409 0 
L 409 4581 
L 972 4581 
L 972 0 
L 409 0 
z
" id="ArialMT-6c" transform="scale(0.015625)"/>
       <path d="M -97 -1272 
L -97 -866 
L 3631 -866 
L 3631 -1272 
L -97 -1272 
z
" id="ArialMT-5f" transform="scale(0.015625)"/>
       <path d="M 422 0 
L 422 3319 
L 928 3319 
L 928 2847 
Q 1294 3394 1984 3394 
Q 2284 3394 2536 3286 
Q 2788 3178 2913 3003 
Q 3038 2828 3088 2588 
Q 3119 2431 3119 2041 
L 3119 0 
L 2556 0 
L 2556 2019 
Q 2556 2363 2490 2533 
Q 2425 2703 2258 2804 
Q 2091 2906 1866 2906 
Q 1506 2906 1245 2678 
Q 984 2450 984 1813 
L 984 0 
L 422 0 
z
" id="ArialMT-6e" transform="scale(0.015625)"/>
       <path d="M 319 -275 
L 866 -356 
Q 900 -609 1056 -725 
Q 1266 -881 1628 -881 
Q 2019 -881 2231 -725 
Q 2444 -569 2519 -288 
Q 2563 -116 2559 434 
Q 2191 0 1641 0 
Q 956 0 581 494 
Q 206 988 206 1678 
Q 206 2153 378 2554 
Q 550 2956 876 3175 
Q 1203 3394 1644 3394 
Q 2231 3394 2613 2919 
L 2613 3319 
L 3131 3319 
L 3131 450 
Q 3131 -325 2973 -648 
Q 2816 -972 2473 -1159 
Q 2131 -1347 1631 -1347 
Q 1038 -1347 672 -1080 
Q 306 -813 319 -275 
z
M 784 1719 
Q 784 1066 1043 766 
Q 1303 466 1694 466 
Q 2081 466 2343 764 
Q 2606 1063 2606 1700 
Q 2606 2309 2336 2618 
Q 2066 2928 1684 2928 
Q 1309 2928 1046 2623 
Q 784 2319 784 1719 
z
" id="ArialMT-67" transform="scale(0.015625)"/>
       <path d="M 1650 503 
L 1731 6 
Q 1494 -44 1306 -44 
Q 1000 -44 831 53 
Q 663 150 594 308 
Q 525 466 525 972 
L 525 2881 
L 113 2881 
L 113 3319 
L 525 3319 
L 525 4141 
L 1084 4478 
L 1084 3319 
L 1650 3319 
L 1650 2881 
L 1084 2881 
L 1084 941 
Q 1084 700 1114 631 
Q 1144 563 1211 522 
Q 1278 481 1403 481 
Q 1497 481 1650 503 
z
" id="ArialMT-74" transform="scale(0.015625)"/>
       <path d="M 422 0 
L 422 4581 
L 984 4581 
L 984 2938 
Q 1378 3394 1978 3394 
Q 2347 3394 2619 3248 
Q 2891 3103 3008 2847 
Q 3125 2591 3125 2103 
L 3125 0 
L 2563 0 
L 2563 2103 
Q 2563 2525 2380 2717 
Q 2197 2909 1863 2909 
Q 1613 2909 1392 2779 
Q 1172 2650 1078 2428 
Q 984 2206 984 1816 
L 984 0 
L 422 0 
z
" id="ArialMT-68" transform="scale(0.015625)"/>
      </defs>
      <use xlink:href="#ArialMT-73"/>
      <use x="50" xlink:href="#ArialMT-65"/>
      <use x="105.615234" xlink:href="#ArialMT-70"/>
      <use x="161.230469" xlink:href="#ArialMT-61"/>
      <use x="216.845703" xlink:href="#ArialMT-6c"/>
      <use x="239.0625" xlink:href="#ArialMT-5f"/>
      <use x="294.677734" xlink:href="#ArialMT-6c"/>
      <use x="316.894531" xlink:href="#ArialMT-65"/>
      <use x="372.509766" xlink:href="#ArialMT-6e"/>
      <use x="428.125" xlink:href="#ArialMT-67"/>
      <use x="483.740234" xlink:href="#ArialMT-74"/>
      <use x="511.523438" xlink:href="#ArialMT-68"/>
     </g>
    </g>
   </g>
   <g id="matplotlib.axis_2">
    <g id="ytick_1">
     <g id="text_10">
      <!-- 0 -->
      <g style="fill:#262626;" transform="translate(55.939062 336.488906)scale(0.1 -0.1)">
       <use xlink:href="#ArialMT-30"/>
      </g>
     </g>
    </g>
    <g id="ytick_2">
     <g id="text_11">
      <!-- 20 -->
      <g style="fill:#262626;" transform="translate(50.378125 300.005685)scale(0.1 -0.1)">
       <defs>
        <path d="M 3222 541 
L 3222 0 
L 194 0 
Q 188 203 259 391 
Q 375 700 629 1000 
Q 884 1300 1366 1694 
Q 2113 2306 2375 2664 
Q 2638 3022 2638 3341 
Q 2638 3675 2398 3904 
Q 2159 4134 1775 4134 
Q 1369 4134 1125 3890 
Q 881 3647 878 3216 
L 300 3275 
Q 359 3922 746 4261 
Q 1134 4600 1788 4600 
Q 2447 4600 2831 4234 
Q 3216 3869 3216 3328 
Q 3216 3053 3103 2787 
Q 2991 2522 2730 2228 
Q 2469 1934 1863 1422 
Q 1356 997 1212 845 
Q 1069 694 975 541 
L 3222 541 
z
" id="ArialMT-32" transform="scale(0.015625)"/>
       </defs>
       <use xlink:href="#ArialMT-32"/>
       <use x="55.615234" xlink:href="#ArialMT-30"/>
      </g>
     </g>
    </g>
    <g id="ytick_3">
     <g id="text_12">
      <!-- 40 -->
      <g style="fill:#262626;" transform="translate(50.378125 263.522463)scale(0.1 -0.1)">
       <use xlink:href="#ArialMT-34"/>
       <use x="55.615234" xlink:href="#ArialMT-30"/>
      </g>
     </g>
    </g>
    <g id="ytick_4">
     <g id="text_13">
      <!-- 60 -->
      <g style="fill:#262626;" transform="translate(50.378125 227.039242)scale(0.1 -0.1)">
       <use xlink:href="#ArialMT-36"/>
       <use x="55.615234" xlink:href="#ArialMT-30"/>
      </g>
     </g>
    </g>
    <g id="ytick_5">
     <g id="text_14">
      <!-- 80 -->
      <g style="fill:#262626;" transform="translate(50.378125 190.55602)scale(0.1 -0.1)">
       <use xlink:href="#ArialMT-38"/>
       <use x="55.615234" xlink:href="#ArialMT-30"/>
      </g>
     </g>
    </g>
    <g id="ytick_6">
     <g id="text_15">
      <!-- 100 -->
      <g style="fill:#262626;" transform="translate(44.817188 154.072799)scale(0.1 -0.1)">
       <defs>
        <path d="M 2384 0 
L 1822 0 
L 1822 3584 
Q 1619 3391 1289 3197 
Q 959 3003 697 2906 
L 697 3450 
Q 1169 3672 1522 3987 
Q 1875 4303 2022 4600 
L 2384 4600 
L 2384 0 
z
" id="ArialMT-31" transform="scale(0.015625)"/>
       </defs>
       <use xlink:href="#ArialMT-31"/>
       <use x="55.615234" xlink:href="#ArialMT-30"/>
       <use x="111.230469" xlink:href="#ArialMT-30"/>
      </g>
     </g>
    </g>
    <g id="ytick_7">
     <g id="text_16">
      <!-- 120 -->
      <g style="fill:#262626;" transform="translate(44.817188 117.589577)scale(0.1 -0.1)">
       <use xlink:href="#ArialMT-31"/>
       <use x="55.615234" xlink:href="#ArialMT-32"/>
       <use x="111.230469" xlink:href="#ArialMT-30"/>
      </g>
     </g>
    </g>
    <g id="ytick_8">
     <g id="text_17">
      <!-- 140 -->
      <g style="fill:#262626;" transform="translate(44.817188 81.106356)scale(0.1 -0.1)">
       <use xlink:href="#ArialMT-31"/>
       <use x="55.615234" xlink:href="#ArialMT-34"/>
       <use x="111.230469" xlink:href="#ArialMT-30"/>
      </g>
     </g>
    </g>
    <g id="text_18">
     <!-- df_index -->
     <g style="fill:#262626;" transform="translate(38.630938 217.802578)rotate(-90)scale(0.11 -0.11)">
      <defs>
       <path d="M 2575 0 
L 2575 419 
Q 2259 -75 1647 -75 
Q 1250 -75 917 144 
Q 584 363 401 755 
Q 219 1147 219 1656 
Q 219 2153 384 2558 
Q 550 2963 881 3178 
Q 1213 3394 1622 3394 
Q 1922 3394 2156 3267 
Q 2391 3141 2538 2938 
L 2538 4581 
L 3097 4581 
L 3097 0 
L 2575 0 
z
M 797 1656 
Q 797 1019 1065 703 
Q 1334 388 1700 388 
Q 2069 388 2326 689 
Q 2584 991 2584 1609 
Q 2584 2291 2321 2609 
Q 2059 2928 1675 2928 
Q 1300 2928 1048 2622 
Q 797 2316 797 1656 
z
" id="ArialMT-64" transform="scale(0.015625)"/>
       <path d="M 556 0 
L 556 2881 
L 59 2881 
L 59 3319 
L 556 3319 
L 556 3672 
Q 556 4006 616 4169 
Q 697 4388 901 4523 
Q 1106 4659 1475 4659 
Q 1713 4659 2000 4603 
L 1916 4113 
Q 1741 4144 1584 4144 
Q 1328 4144 1222 4034 
Q 1116 3925 1116 3625 
L 1116 3319 
L 1763 3319 
L 1763 2881 
L 1116 2881 
L 1116 0 
L 556 0 
z
" id="ArialMT-66" transform="scale(0.015625)"/>
       <path d="M 425 3934 
L 425 4581 
L 988 4581 
L 988 3934 
L 425 3934 
z
M 425 0 
L 425 3319 
L 988 3319 
L 988 0 
L 425 0 
z
" id="ArialMT-69" transform="scale(0.015625)"/>
       <path d="M 47 0 
L 1259 1725 
L 138 3319 
L 841 3319 
L 1350 2541 
Q 1494 2319 1581 2169 
Q 1719 2375 1834 2534 
L 2394 3319 
L 3066 3319 
L 1919 1756 
L 3153 0 
L 2463 0 
L 1781 1031 
L 1600 1309 
L 728 0 
L 47 0 
z
" id="ArialMT-78" transform="scale(0.015625)"/>
      </defs>
      <use xlink:href="#ArialMT-64"/>
      <use x="55.615234" xlink:href="#ArialMT-66"/>
      <use x="83.398438" xlink:href="#ArialMT-5f"/>
      <use x="139.013672" xlink:href="#ArialMT-69"/>
      <use x="161.230469" xlink:href="#ArialMT-6e"/>
      <use x="216.845703" xlink:href="#ArialMT-64"/>
      <use x="272.460938" xlink:href="#ArialMT-65"/>
      <use x="328.076172" xlink:href="#ArialMT-78"/>
     </g>
    </g>
   </g>
   <g id="PathCollection_1">
    <defs>
     <path d="M 0 3.5 
C 0.928211 3.5 1.81853 3.131218 2.474874 2.474874 
C 3.131218 1.81853 3.5 0.928211 3.5 0 
C 3.5 -0.928211 3.131218 -1.81853 2.474874 -2.474874 
C 1.81853 -3.131218 0.928211 -3.5 0 -3.5 
C -0.928211 -3.5 -1.81853 -3.131218 -2.474874 -2.474874 
C -3.131218 -1.81853 -3.5 -0.928211 -3.5 0 
C -3.5 0.928211 -3.131218 1.81853 -2.474874 2.474874 
C -1.81853 3.131218 -0.928211 3.5 0 3.5 
z
" id="m74eefe9235" style="stroke:#337ab7;stroke-width:0.3;"/>
    </defs>
    <g clip-path="url(#p8875506cb4)">
     <use style="fill:#337ab7;stroke:#337ab7;stroke-width:0.3;" x="126.109091" xlink:href="#m74eefe9235" y="327.437517"/>
     <use style="fill:#337ab7;stroke:#337ab7;stroke-width:0.3;" x="340.290909" xlink:href="#m74eefe9235" y="143.197248"/>
     <use style="fill:#337ab7;stroke:#337ab7;stroke-width:0.3;" x="227.563636" xlink:href="#m74eefe9235" y="236.229463"/>
     <use style="fill:#337ab7;stroke:#337ab7;stroke-width:0.3;" x="362.836364" xlink:href="#m74eefe9235" y="192.449597"/>
     <use style="fill:#337ab7;stroke:#337ab7;stroke-width:0.3;" x="216.290909" xlink:href="#m74eefe9235" y="276.361007"/>
     <use style="fill:#337ab7;stroke:#337ab7;stroke-width:0.3;" x="351.563636" xlink:href="#m74eefe9235" y="196.097919"/>
     <use style="fill:#337ab7;stroke:#337ab7;stroke-width:0.3;" x="137.381818" xlink:href="#m74eefe9235" y="329.261678"/>
     <use style="fill:#337ab7;stroke:#337ab7;stroke-width:0.3;" x="148.654545" xlink:href="#m74eefe9235" y="311.020067"/>
     <use style="fill:#337ab7;stroke:#337ab7;stroke-width:0.3;" x="159.927273" xlink:href="#m74eefe9235" y="270.888523"/>
     <use style="fill:#337ab7;stroke:#337ab7;stroke-width:0.3;" x="126.109091" xlink:href="#m74eefe9235" y="247.17443"/>
     <use style="fill:#337ab7;stroke:#337ab7;stroke-width:0.3;" x="92.290909" xlink:href="#m74eefe9235" y="309.195906"/>
     <use style="fill:#337ab7;stroke:#337ab7;stroke-width:0.3;" x="272.654545" xlink:href="#m74eefe9235" y="61.11"/>
     <use style="fill:#337ab7;stroke:#337ab7;stroke-width:0.3;" x="148.654545" xlink:href="#m74eefe9235" y="289.130134"/>
     <use style="fill:#337ab7;stroke:#337ab7;stroke-width:0.3;" x="227.563636" xlink:href="#m74eefe9235" y="267.240201"/>
     <use style="fill:#337ab7;stroke:#337ab7;stroke-width:0.3;" x="250.109091" xlink:href="#m74eefe9235" y="159.614698"/>
     <use style="fill:#337ab7;stroke:#337ab7;stroke-width:0.3;" x="261.381818" xlink:href="#m74eefe9235" y="210.691208"/>
     <use style="fill:#337ab7;stroke:#337ab7;stroke-width:0.3;" x="329.018182" xlink:href="#m74eefe9235" y="123.131477"/>
     <use style="fill:#337ab7;stroke:#337ab7;stroke-width:0.3;" x="103.563636" xlink:href="#m74eefe9235" y="318.316711"/>
     <use style="fill:#337ab7;stroke:#337ab7;stroke-width:0.3;" x="148.654545" xlink:href="#m74eefe9235" y="278.185168"/>
     <use style="fill:#337ab7;stroke:#337ab7;stroke-width:0.3;" x="171.2" xlink:href="#m74eefe9235" y="287.305973"/>
     <use style="fill:#337ab7;stroke:#337ab7;stroke-width:0.3;" x="238.836364" xlink:href="#m74eefe9235" y="207.042886"/>
     <use style="fill:#337ab7;stroke:#337ab7;stroke-width:0.3;" x="238.836364" xlink:href="#m74eefe9235" y="212.515369"/>
     <use style="fill:#337ab7;stroke:#337ab7;stroke-width:0.3;" x="182.472727" xlink:href="#m74eefe9235" y="301.899262"/>
     <use style="fill:#337ab7;stroke:#337ab7;stroke-width:0.3;" x="261.381818" xlink:href="#m74eefe9235" y="73.879128"/>
     <use style="fill:#337ab7;stroke:#337ab7;stroke-width:0.3;" x="227.563636" xlink:href="#m74eefe9235" y="170.559664"/>
     <use style="fill:#337ab7;stroke:#337ab7;stroke-width:0.3;" x="182.472727" xlink:href="#m74eefe9235" y="261.767718"/>
     <use style="fill:#337ab7;stroke:#337ab7;stroke-width:0.3;" x="329.018182" xlink:href="#m74eefe9235" y="197.922081"/>
     <use style="fill:#337ab7;stroke:#337ab7;stroke-width:0.3;" x="227.563636" xlink:href="#m74eefe9235" y="186.977114"/>
     <use style="fill:#337ab7;stroke:#337ab7;stroke-width:0.3;" x="159.927273" xlink:href="#m74eefe9235" y="139.548926"/>
     <use style="fill:#337ab7;stroke:#337ab7;stroke-width:0.3;" x="340.290909" xlink:href="#m74eefe9235" y="64.758322"/>
     <use style="fill:#337ab7;stroke:#337ab7;stroke-width:0.3;" x="385.381818" xlink:href="#m74eefe9235" y="114.010671"/>
     <use style="fill:#337ab7;stroke:#337ab7;stroke-width:0.3;" x="362.836364" xlink:href="#m74eefe9235" y="106.714027"/>
     <use style="fill:#337ab7;stroke:#337ab7;stroke-width:0.3;" x="159.927273" xlink:href="#m74eefe9235" y="316.49255"/>
     <use style="fill:#337ab7;stroke:#337ab7;stroke-width:0.3;" x="340.290909" xlink:href="#m74eefe9235" y="234.405302"/>
     <use style="fill:#337ab7;stroke:#337ab7;stroke-width:0.3;" x="441.745455" xlink:href="#m74eefe9235" y="95.76906"/>
     <use style="fill:#337ab7;stroke:#337ab7;stroke-width:0.3;" x="227.563636" xlink:href="#m74eefe9235" y="168.735503"/>
     <use style="fill:#337ab7;stroke:#337ab7;stroke-width:0.3;" x="306.472727" xlink:href="#m74eefe9235" y="62.934161"/>
     <use style="fill:#337ab7;stroke:#337ab7;stroke-width:0.3;" x="351.563636" xlink:href="#m74eefe9235" y="227.108658"/>
     <use style="fill:#337ab7;stroke:#337ab7;stroke-width:0.3;" x="171.2" xlink:href="#m74eefe9235" y="285.481812"/>
     <use style="fill:#337ab7;stroke:#337ab7;stroke-width:0.3;" x="159.927273" xlink:href="#m74eefe9235" y="265.41604"/>
     <use style="fill:#337ab7;stroke:#337ab7;stroke-width:0.3;" x="193.745455" xlink:href="#m74eefe9235" y="225.284497"/>
     <use style="fill:#337ab7;stroke:#337ab7;stroke-width:0.3;" x="498.109091" xlink:href="#m74eefe9235" y="93.944899"/>
     <use style="fill:#337ab7;stroke:#337ab7;stroke-width:0.3;" x="261.381818" xlink:href="#m74eefe9235" y="148.669732"/>
     <use style="fill:#337ab7;stroke:#337ab7;stroke-width:0.3;" x="419.2" xlink:href="#m74eefe9235" y="134.076443"/>
     <use style="fill:#337ab7;stroke:#337ab7;stroke-width:0.3;" x="272.654545" xlink:href="#m74eefe9235" y="205.218725"/>
     <use style="fill:#337ab7;stroke:#337ab7;stroke-width:0.3;" x="182.472727" xlink:href="#m74eefe9235" y="290.954295"/>
     <use style="fill:#337ab7;stroke:#337ab7;stroke-width:0.3;" x="238.836364" xlink:href="#m74eefe9235" y="216.163691"/>
     <use style="fill:#337ab7;stroke:#337ab7;stroke-width:0.3;" x="362.836364" xlink:href="#m74eefe9235" y="135.900604"/>
     <use style="fill:#337ab7;stroke:#337ab7;stroke-width:0.3;" x="329.018182" xlink:href="#m74eefe9235" y="239.877785"/>
     <use style="fill:#337ab7;stroke:#337ab7;stroke-width:0.3;" x="171.2" xlink:href="#m74eefe9235" y="163.26302"/>
     <use style="fill:#337ab7;stroke:#337ab7;stroke-width:0.3;" x="182.472727" xlink:href="#m74eefe9235" y="248.998591"/>
     <use style="fill:#337ab7;stroke:#337ab7;stroke-width:0.3;" x="182.472727" xlink:href="#m74eefe9235" y="252.646913"/>
     <use style="fill:#337ab7;stroke:#337ab7;stroke-width:0.3;" x="407.927273" xlink:href="#m74eefe9235" y="146.84557"/>
     <use style="fill:#337ab7;stroke:#337ab7;stroke-width:0.3;" x="283.927273" xlink:href="#m74eefe9235" y="181.504631"/>
     <use style="fill:#337ab7;stroke:#337ab7;stroke-width:0.3;" x="261.381818" xlink:href="#m74eefe9235" y="183.328792"/>
     <use style="fill:#337ab7;stroke:#337ab7;stroke-width:0.3;" x="216.290909" xlink:href="#m74eefe9235" y="296.426779"/>
     <use style="fill:#337ab7;stroke:#337ab7;stroke-width:0.3;" x="171.2" xlink:href="#m74eefe9235" y="325.613356"/>
     <use style="fill:#337ab7;stroke:#337ab7;stroke-width:0.3;" x="295.2" xlink:href="#m74eefe9235" y="217.987852"/>
     <use style="fill:#337ab7;stroke:#337ab7;stroke-width:0.3;" x="171.2" xlink:href="#m74eefe9235" y="223.460336"/>
     <use style="fill:#337ab7;stroke:#337ab7;stroke-width:0.3;" x="317.745455" xlink:href="#m74eefe9235" y="145.021409"/>
     <use style="fill:#337ab7;stroke:#337ab7;stroke-width:0.3;" x="227.563636" xlink:href="#m74eefe9235" y="272.712685"/>
     <use style="fill:#337ab7;stroke:#337ab7;stroke-width:0.3;" x="385.381818" xlink:href="#m74eefe9235" y="79.351611"/>
     <use style="fill:#337ab7;stroke:#337ab7;stroke-width:0.3;" x="362.836364" xlink:href="#m74eefe9235" y="70.230805"/>
     <use style="fill:#337ab7;stroke:#337ab7;stroke-width:0.3;" x="329.018182" xlink:href="#m74eefe9235" y="99.417383"/>
     <use style="fill:#337ab7;stroke:#337ab7;stroke-width:0.3;" x="317.745455" xlink:href="#m74eefe9235" y="90.296577"/>
     <use style="fill:#337ab7;stroke:#337ab7;stroke-width:0.3;" x="114.836364" xlink:href="#m74eefe9235" y="258.119396"/>
     <use style="fill:#337ab7;stroke:#337ab7;stroke-width:0.3;" x="171.2" xlink:href="#m74eefe9235" y="243.526107"/>
     <use style="fill:#337ab7;stroke:#337ab7;stroke-width:0.3;" x="374.109091" xlink:href="#m74eefe9235" y="128.60396"/>
     <use style="fill:#337ab7;stroke:#337ab7;stroke-width:0.3;" x="171.2" xlink:href="#m74eefe9235" y="254.471074"/>
     <use style="fill:#337ab7;stroke:#337ab7;stroke-width:0.3;" x="193.745455" xlink:href="#m74eefe9235" y="281.83349"/>
     <use style="fill:#337ab7;stroke:#337ab7;stroke-width:0.3;" x="475.563636" xlink:href="#m74eefe9235" y="86.648255"/>
     <use style="fill:#337ab7;stroke:#337ab7;stroke-width:0.3;" x="306.472727" xlink:href="#m74eefe9235" y="155.966376"/>
     <use style="fill:#337ab7;stroke:#337ab7;stroke-width:0.3;" x="283.927273" xlink:href="#m74eefe9235" y="219.812013"/>
     <use style="fill:#337ab7;stroke:#337ab7;stroke-width:0.3;" x="250.109091" xlink:href="#m74eefe9235" y="126.779799"/>
     <use style="fill:#337ab7;stroke:#337ab7;stroke-width:0.3;" x="126.109091" xlink:href="#m74eefe9235" y="321.965034"/>
     <use style="fill:#337ab7;stroke:#337ab7;stroke-width:0.3;" x="283.927273" xlink:href="#m74eefe9235" y="81.175772"/>
     <use style="fill:#337ab7;stroke:#337ab7;stroke-width:0.3;" x="317.745455" xlink:href="#m74eefe9235" y="66.582483"/>
     <use style="fill:#337ab7;stroke:#337ab7;stroke-width:0.3;" x="283.927273" xlink:href="#m74eefe9235" y="115.834832"/>
     <use style="fill:#337ab7;stroke:#337ab7;stroke-width:0.3;" x="205.018182" xlink:href="#m74eefe9235" y="245.350268"/>
     <use style="fill:#337ab7;stroke:#337ab7;stroke-width:0.3;" x="396.654545" xlink:href="#m74eefe9235" y="241.701946"/>
     <use style="fill:#337ab7;stroke:#337ab7;stroke-width:0.3;" x="182.472727" xlink:href="#m74eefe9235" y="332.91"/>
     <use style="fill:#337ab7;stroke:#337ab7;stroke-width:0.3;" x="126.109091" xlink:href="#m74eefe9235" y="292.778456"/>
     <use style="fill:#337ab7;stroke:#337ab7;stroke-width:0.3;" x="385.381818" xlink:href="#m74eefe9235" y="238.053624"/>
     <use style="fill:#337ab7;stroke:#337ab7;stroke-width:0.3;" x="295.2" xlink:href="#m74eefe9235" y="203.394564"/>
     <use style="fill:#337ab7;stroke:#337ab7;stroke-width:0.3;" x="295.2" xlink:href="#m74eefe9235" y="199.746242"/>
     <use style="fill:#337ab7;stroke:#337ab7;stroke-width:0.3;" x="137.381818" xlink:href="#m74eefe9235" y="280.009329"/>
     <use style="fill:#337ab7;stroke:#337ab7;stroke-width:0.3;" x="261.381818" xlink:href="#m74eefe9235" y="124.955638"/>
     <use style="fill:#337ab7;stroke:#337ab7;stroke-width:0.3;" x="182.472727" xlink:href="#m74eefe9235" y="294.602617"/>
     <use style="fill:#337ab7;stroke:#337ab7;stroke-width:0.3;" x="250.109091" xlink:href="#m74eefe9235" y="152.318054"/>
     <use style="fill:#337ab7;stroke:#337ab7;stroke-width:0.3;" x="216.290909" xlink:href="#m74eefe9235" y="323.789195"/>
     <use style="fill:#337ab7;stroke:#337ab7;stroke-width:0.3;" x="250.109091" xlink:href="#m74eefe9235" y="232.581141"/>
     <use style="fill:#337ab7;stroke:#337ab7;stroke-width:0.3;" x="317.745455" xlink:href="#m74eefe9235" y="84.824094"/>
     <use style="fill:#337ab7;stroke:#337ab7;stroke-width:0.3;" x="261.381818" xlink:href="#m74eefe9235" y="165.087181"/>
     <use style="fill:#337ab7;stroke:#337ab7;stroke-width:0.3;" x="103.563636" xlink:href="#m74eefe9235" y="256.295235"/>
     <use style="fill:#337ab7;stroke:#337ab7;stroke-width:0.3;" x="385.381818" xlink:href="#m74eefe9235" y="75.703289"/>
     <use style="fill:#337ab7;stroke:#337ab7;stroke-width:0.3;" x="159.927273" xlink:href="#m74eefe9235" y="331.085839"/>
     <use style="fill:#337ab7;stroke:#337ab7;stroke-width:0.3;" x="464.290909" xlink:href="#m74eefe9235" y="141.373087"/>
     <use style="fill:#337ab7;stroke:#337ab7;stroke-width:0.3;" x="250.109091" xlink:href="#m74eefe9235" y="305.547584"/>
     <use style="fill:#337ab7;stroke:#337ab7;stroke-width:0.3;" x="159.927273" xlink:href="#m74eefe9235" y="228.932819"/>
     <use style="fill:#337ab7;stroke:#337ab7;stroke-width:0.3;" x="475.563636" xlink:href="#m74eefe9235" y="119.483154"/>
     <use style="fill:#337ab7;stroke:#337ab7;stroke-width:0.3;" x="317.745455" xlink:href="#m74eefe9235" y="174.207987"/>
     <use style="fill:#337ab7;stroke:#337ab7;stroke-width:0.3;" x="306.472727" xlink:href="#m74eefe9235" y="103.065705"/>
     <use style="fill:#337ab7;stroke:#337ab7;stroke-width:0.3;" x="250.109091" xlink:href="#m74eefe9235" y="300.075101"/>
     <use style="fill:#337ab7;stroke:#337ab7;stroke-width:0.3;" x="261.381818" xlink:href="#m74eefe9235" y="307.371745"/>
     <use style="fill:#337ab7;stroke:#337ab7;stroke-width:0.3;" x="475.563636" xlink:href="#m74eefe9235" y="110.362349"/>
     <use style="fill:#337ab7;stroke:#337ab7;stroke-width:0.3;" x="295.2" xlink:href="#m74eefe9235" y="166.911342"/>
     <use style="fill:#337ab7;stroke:#337ab7;stroke-width:0.3;" x="475.563636" xlink:href="#m74eefe9235" y="117.658993"/>
     <use style="fill:#337ab7;stroke:#337ab7;stroke-width:0.3;" x="238.836364" xlink:href="#m74eefe9235" y="172.383826"/>
     <use style="fill:#337ab7;stroke:#337ab7;stroke-width:0.3;" x="171.2" xlink:href="#m74eefe9235" y="259.943557"/>
     <use style="fill:#337ab7;stroke:#337ab7;stroke-width:0.3;" x="295.2" xlink:href="#m74eefe9235" y="101.241544"/>
     <use style="fill:#337ab7;stroke:#337ab7;stroke-width:0.3;" x="374.109091" xlink:href="#m74eefe9235" y="72.054966"/>
     <use style="fill:#337ab7;stroke:#337ab7;stroke-width:0.3;" x="216.290909" xlink:href="#m74eefe9235" y="179.68047"/>
     <use style="fill:#337ab7;stroke:#337ab7;stroke-width:0.3;" x="238.836364" xlink:href="#m74eefe9235" y="112.18651"/>
     <use style="fill:#337ab7;stroke:#337ab7;stroke-width:0.3;" x="317.745455" xlink:href="#m74eefe9235" y="150.493893"/>
     <use style="fill:#337ab7;stroke:#337ab7;stroke-width:0.3;" x="193.745455" xlink:href="#m74eefe9235" y="274.536846"/>
     <use style="fill:#337ab7;stroke:#337ab7;stroke-width:0.3;" x="283.927273" xlink:href="#m74eefe9235" y="177.856309"/>
     <use style="fill:#337ab7;stroke:#337ab7;stroke-width:0.3;" x="171.2" xlink:href="#m74eefe9235" y="269.064362"/>
     <use style="fill:#337ab7;stroke:#337ab7;stroke-width:0.3;" x="419.2" xlink:href="#m74eefe9235" y="97.593221"/>
     <use style="fill:#337ab7;stroke:#337ab7;stroke-width:0.3;" x="374.109091" xlink:href="#m74eefe9235" y="194.273758"/>
     <use style="fill:#337ab7;stroke:#337ab7;stroke-width:0.3;" x="182.472727" xlink:href="#m74eefe9235" y="298.25094"/>
     <use style="fill:#337ab7;stroke:#337ab7;stroke-width:0.3;" x="216.290909" xlink:href="#m74eefe9235" y="303.723423"/>
     <use style="fill:#337ab7;stroke:#337ab7;stroke-width:0.3;" x="250.109091" xlink:href="#m74eefe9235" y="188.801275"/>
     <use style="fill:#337ab7;stroke:#337ab7;stroke-width:0.3;" x="340.290909" xlink:href="#m74eefe9235" y="121.307315"/>
     <use style="fill:#337ab7;stroke:#337ab7;stroke-width:0.3;" x="148.654545" xlink:href="#m74eefe9235" y="312.844228"/>
     <use style="fill:#337ab7;stroke:#337ab7;stroke-width:0.3;" x="148.654545" xlink:href="#m74eefe9235" y="250.822752"/>
     <use style="fill:#337ab7;stroke:#337ab7;stroke-width:0.3;" x="362.836364" xlink:href="#m74eefe9235" y="176.032148"/>
     <use style="fill:#337ab7;stroke:#337ab7;stroke-width:0.3;" x="419.2" xlink:href="#m74eefe9235" y="104.889866"/>
     <use style="fill:#337ab7;stroke:#337ab7;stroke-width:0.3;" x="329.018182" xlink:href="#m74eefe9235" y="82.999933"/>
     <use style="fill:#337ab7;stroke:#337ab7;stroke-width:0.3;" x="295.2" xlink:href="#m74eefe9235" y="88.472416"/>
     <use style="fill:#337ab7;stroke:#337ab7;stroke-width:0.3;" x="317.745455" xlink:href="#m74eefe9235" y="201.570403"/>
     <use style="fill:#337ab7;stroke:#337ab7;stroke-width:0.3;" x="171.2" xlink:href="#m74eefe9235" y="320.140872"/>
     <use style="fill:#337ab7;stroke:#337ab7;stroke-width:0.3;" x="306.472727" xlink:href="#m74eefe9235" y="208.867047"/>
     <use style="fill:#337ab7;stroke:#337ab7;stroke-width:0.3;" x="227.563636" xlink:href="#m74eefe9235" y="185.152953"/>
     <use style="fill:#337ab7;stroke:#337ab7;stroke-width:0.3;" x="272.654545" xlink:href="#m74eefe9235" y="221.636174"/>
     <use style="fill:#337ab7;stroke:#337ab7;stroke-width:0.3;" x="193.745455" xlink:href="#m74eefe9235" y="283.657651"/>
     <use style="fill:#337ab7;stroke:#337ab7;stroke-width:0.3;" x="182.472727" xlink:href="#m74eefe9235" y="154.142215"/>
     <use style="fill:#337ab7;stroke:#337ab7;stroke-width:0.3;" x="340.290909" xlink:href="#m74eefe9235" y="132.252282"/>
     <use style="fill:#337ab7;stroke:#337ab7;stroke-width:0.3;" x="317.745455" xlink:href="#m74eefe9235" y="230.75698"/>
     <use style="fill:#337ab7;stroke:#337ab7;stroke-width:0.3;" x="362.836364" xlink:href="#m74eefe9235" y="77.52745"/>
     <use style="fill:#337ab7;stroke:#337ab7;stroke-width:0.3;" x="103.563636" xlink:href="#m74eefe9235" y="263.591879"/>
     <use style="fill:#337ab7;stroke:#337ab7;stroke-width:0.3;" x="250.109091" xlink:href="#m74eefe9235" y="157.790537"/>
     <use style="fill:#337ab7;stroke:#337ab7;stroke-width:0.3;" x="283.927273" xlink:href="#m74eefe9235" y="190.625436"/>
     <use style="fill:#337ab7;stroke:#337ab7;stroke-width:0.3;" x="216.290909" xlink:href="#m74eefe9235" y="314.668389"/>
     <use style="fill:#337ab7;stroke:#337ab7;stroke-width:0.3;" x="329.018182" xlink:href="#m74eefe9235" y="92.120738"/>
     <use style="fill:#337ab7;stroke:#337ab7;stroke-width:0.3;" x="317.745455" xlink:href="#m74eefe9235" y="108.538188"/>
     <use style="fill:#337ab7;stroke:#337ab7;stroke-width:0.3;" x="430.472727" xlink:href="#m74eefe9235" y="137.724765"/>
     <use style="fill:#337ab7;stroke:#337ab7;stroke-width:0.3;" x="362.836364" xlink:href="#m74eefe9235" y="68.406644"/>
     <use style="fill:#337ab7;stroke:#337ab7;stroke-width:0.3;" x="238.836364" xlink:href="#m74eefe9235" y="161.438859"/>
     <use style="fill:#337ab7;stroke:#337ab7;stroke-width:0.3;" x="362.836364" xlink:href="#m74eefe9235" y="214.33953"/>
     <use style="fill:#337ab7;stroke:#337ab7;stroke-width:0.3;" x="329.018182" xlink:href="#m74eefe9235" y="130.428121"/>
    </g>
   </g>
   <g id="patch_3">
    <path d="M 72 346.5 
L 72 47.52 
" style="fill:none;"/>
   </g>
   <g id="patch_4">
    <path d="M 518.4 346.5 
L 518.4 47.52 
" style="fill:none;"/>
   </g>
   <g id="patch_5">
    <path d="M 72 346.5 
L 518.4 346.5 
" style="fill:none;"/>
   </g>
   <g id="patch_6">
    <path d="M 72 47.52 
L 518.4 47.52 
" style="fill:none;"/>
   </g>
  </g>
 </g>
 <defs>
  <clipPath id="p8875506cb4">
   <rect height="298.98" width="446.4" x="72" y="47.52"/>
  </clipPath>
 </defs>
</svg>
